#N canvas 585 285 558 426 10;
#X obj 101 101 ctlin;
#X msg 135 297 impeach ringo starr;
#X obj 94 347 route big apple;
#X msg 315 298 apple pie;
#X msg 71 297 1 2 3;
#X msg 402 298 big apple pie;
#X obj 80 389 print y1;
#X obj 158 389 print y2;
#X obj 236 389 print y3;
#X obj 326 203 route 1 2 16;
#X obj 198 256 print y1;
#X obj 303 258 print y2;
#X obj 402 260 print y3;
#X obj 449 234 print y4;
#X floatatom 102 170 5 0 0 0 - - -, f 5;
#X floatatom 160 169 5 0 0 0 - - -, f 5;
#X obj 280 173 pack 0 0;
#X connect 0 0 14 0;
#X connect 0 0 16 1;
#X connect 0 1 15 0;
#X connect 0 1 16 0;
#X connect 1 0 2 0;
#X connect 2 0 6 0;
#X connect 2 1 7 0;
#X connect 2 2 8 0;
#X connect 3 0 2 0;
#X connect 4 0 2 0;
#X connect 5 0 2 0;
#X connect 9 0 10 0;
#X connect 9 1 11 0;
#X connect 9 2 12 0;
#X connect 9 3 13 0;
#X connect 16 0 9 0;
