#N canvas 51 530 586 305 10;
#X obj 27 38 inlet;
#X text 29 11 x f1;
#X text 112 13 x1 f2;
#X text 185 14 x2 f3;
#X text 264 13 y1 f4;
#X text 328 12 y2 f5;
#X obj 97 126 expr ($f5 - $f4)/($f3 - $f2)*$f1 + $f4;
#X obj 96 180 outlet;
#X obj 417 25 loadbang;
#X floatatom 144 82 5 0 0 0 - - -;
#X floatatom 212 73 5 0 0 0 - - -;
#X obj 120 47 f \$1;
#X obj 189 43 f \$2;
#X floatatom 285 71 5 0 0 0 - - -;
#X floatatom 339 84 5 0 0 0 - - -;
#X obj 428 4 bng 15 250 50 0 empty empty empty 17 7 0 10 -262144 -1
-1;
#X floatatom 181 165 5 0 0 0 - - -;
#X floatatom 89 83 5 0 0 0 - - -;
#X obj 264 45 f \$3;
#X obj 332 47 f \$4;
#X connect 0 0 6 0;
#X connect 6 0 7 0;
#X connect 6 0 16 0;
#X connect 8 0 11 0;
#X connect 8 0 12 0;
#X connect 8 0 18 0;
#X connect 8 0 19 0;
#X connect 11 0 6 1;
#X connect 11 0 9 0;
#X connect 12 0 6 2;
#X connect 12 0 10 0;
#X connect 15 0 8 0;
#X connect 17 0 6 0;
#X connect 18 0 6 3;
#X connect 18 0 13 0;
#X connect 19 0 6 4;
#X connect 19 0 14 0;
