#N canvas 341 39 1291 954 10;
#X obj 690 33 tgl 15 0 empty empty empty 17 7 0 10 -262144 -1 -1 1
1;
#X floatatom 700 199 5 0 0 0 - - -;
#X obj 6 -31 cnv 15 300 500 empty empty empty 20 12 0 14 -33289 -66577
0;
#X obj 29 39 cnv 15 250 100 empty empty empty 20 12 0 14 -241291 -66577
0;
#X obj 56 73 hsl 195 15 0 1 0 0 grenze-links empty empty -2 -6 0 8
-262144 -1 -1 0 1;
#X obj 56 102 hsl 195 15 0 1 0 0 grenze-rechts empty empty -2 -6 0
8 -262144 -1 -1 4338 1;
#X obj 29 140 cnv 15 250 200 empty empty empty 20 12 0 14 -233017 -66577
0;
#N canvas 0 22 450 300 (subpatch) 0;
#X array buffer 77824 float 2;
#X coords 0 1 77824 -1 200 140 1 0 0;
#X restore 52 156 graph;
#X obj 55 301 hsl 195 15 0 1 0 0 empty pos empty -2 -6 0 8 -262144
-1 -1 2768 1;
#X obj 29 341 cnv 15 250 100 empty empty empty 20 12 0 14 -260818 -66577
0;
#X obj 53 363 hsl 128 15 0.5 2.5 0 0 geschw empty empty -2 -6 0 8 -262144
-1 -1 5700 1;
#X obj 52 412 hsl 128 15 0 2 0 0 amp empty empty -2 -6 0 8 -262144
-1 -1 7900 1;
#X obj 29 8 cnv 15 250 30 empty empty empty 20 12 0 14 -262144 -66577
0;
#X obj 43 16 bng 22 250 50 0 load empty empty 0 -6 0 8 -258699 -1 -1
;
#X obj 69 -26 cnv 15 100 20 empty empty Sample-Player 20 12 1 14 -33289
-262144 0;
#X obj 203 446 cnv 15 100 20 empty empty empty 20 12 0 14 -233017 -66577
0;
#X text 68 13 first load sound file;
#X text 51 53 left limit;
#X text 165 120 right limit;
#X text 49 342 playback speed;
#X text 47 391 volume;
#X obj 502 68 adc~;
#X obj 413 148 bng 15 250 50 0 empty empty empty 17 7 0 10 -262144
-1 -1;
#X obj 434 200 tabwrite~ buffer;
#X floatatom 612 156 5 0 0 0 - - -;
#X obj 627 107 == 0;
#X obj 996 113 soundfiler;
#X obj 996 62 openpanel;
#X obj 830 497 phasor~;
#X floatatom 830 443 5 0 0 0 - - -;
#X obj 833 717 *~;
#X floatatom 1090 668 5 0 0 0 - - -;
#X obj 1090 712 line~;
#X msg 1090 688 \$1 20;
#X obj 834 742 hip~ 5;
#X obj 668 846 dac~;
#X obj 830 468 *;
#X obj 830 312 expr 1 / $f1;
#X obj 1094 251 -;
#X obj 1149 210 t f b;
#X floatatom 1094 216 5 0 0 0 - - -;
#X obj 870 208 expr 44100 / $f1;
#X obj 830 363 *;
#X obj 830 551 +~;
#X obj 830 523 *~;
#X obj 977 647 unsig~ 20;
#X obj 1060 160 r grenze-rechts;
#X obj 1150 185 r grenze-links;
#X obj 984 673 s pos;
#X obj 996 38 r load;
#X obj 866 370 r geschw;
#X obj 1090 642 r amp;
#X obj 866 402 t b f;
#X obj 871 609 *~;
#X msg 997 86 read -resize \$1 buffer;
#X obj 829 655 tabread4~ buffer;
#X obj 592 195 *~;
#X text 690 8 Activate Stutter;
#X obj 726 778 *~;
#X obj 152 795 tabread~ buffer;
#X obj 153 761 bng 15 250 50 0 empty empty empty 17 7 0 10 -262144
-1 -1;
#X obj 210 704 bng 15 250 50 0 empty empty empty 17 7 0 10 -262144
-1 -1;
#X obj 215 741 metro 100;
#X obj 83 638 pack 0 0;
#X floatatom 121 580 5 0 0 0 - - -;
#X msg 72 609 0;
#X obj 128 606 t f b;
#X obj 151 669 print;
#X obj 135 729 sig~;
#X obj 113 695 line;
#X obj 835 797 snapshot~;
#X obj 835 855 print;
#X obj 945 767 bng 15 250 50 0 empty empty empty 17 7 0 10 -262144
-1 -1;
#X obj 428 295 ctlin;
#X obj 397 372 route 1 2 16;
#X obj 416 339 pack 0 0;
#X obj 411 120 select 1;
#X obj 395 479 Map 0 127 0.5 2.5;
#X obj 528 319 == 0;
#X obj 351 569 Map 0 127 0.01 0.3;
#X floatatom 394 531 5 0 0 0 - - -;
#X floatatom 374 616 5 0 0 0 - - -;
#X connect 0 0 1 0;
#X connect 0 0 25 0;
#X connect 0 0 76 0;
#X connect 1 0 58 1;
#X connect 21 0 23 0;
#X connect 21 0 56 0;
#X connect 22 0 23 0;
#X connect 24 0 56 1;
#X connect 25 0 24 0;
#X connect 26 0 41 0;
#X connect 26 0 53 1;
#X connect 27 0 54 0;
#X connect 28 0 44 0;
#X connect 29 0 36 0;
#X connect 30 0 34 0;
#X connect 31 0 33 0;
#X connect 32 0 30 1;
#X connect 33 0 32 0;
#X connect 34 0 58 0;
#X connect 34 0 70 0;
#X connect 36 0 28 0;
#X connect 37 0 42 0;
#X connect 38 0 37 0;
#X connect 38 0 44 1;
#X connect 39 0 38 1;
#X connect 39 0 43 1;
#X connect 39 1 40 0;
#X connect 40 0 38 0;
#X connect 41 0 42 1;
#X connect 42 0 29 0;
#X connect 43 0 45 0;
#X connect 43 0 53 0;
#X connect 44 0 43 0;
#X connect 45 0 48 0;
#X connect 46 0 40 0;
#X connect 47 0 39 0;
#X connect 49 0 27 0;
#X connect 50 0 52 0;
#X connect 51 0 31 0;
#X connect 52 0 29 0;
#X connect 52 1 36 1;
#X connect 53 0 55 0;
#X connect 54 0 26 0;
#X connect 55 0 30 0;
#X connect 56 0 35 0;
#X connect 56 0 35 1;
#X connect 58 0 35 0;
#X connect 58 0 35 1;
#X connect 60 0 59 0;
#X connect 61 0 62 0;
#X connect 63 0 67 0;
#X connect 63 0 69 0;
#X connect 64 0 66 0;
#X connect 65 0 63 0;
#X connect 66 0 63 1;
#X connect 66 1 65 0;
#X connect 69 0 68 0;
#X connect 70 0 71 0;
#X connect 72 0 70 0;
#X connect 73 0 75 1;
#X connect 73 1 75 0;
#X connect 74 0 77 0;
#X connect 74 0 79 0;
#X connect 74 2 78 0;
#X connect 75 0 74 0;
#X connect 76 0 22 0;
#X connect 77 0 80 0;
#X connect 78 0 0 0;
#X connect 79 0 5 0;
