#N canvas 117 23 1075 789 12;
#X obj 78 87 adc~;
#X floatatom 225 76 0 0 0 0 - - -;
#X floatatom 316 76 0 0 0 0 - - -;
#X obj 316 99 trigger bang float;
#X obj 163 186 biquad~;
#X obj 228 31 hsl 128 17 20 20000 1 1 empty empty frequency 5 9 0 10
-203904 -1 -1 5800 0;
#X obj 319 54 hsl 128 17 0 100 0 1 empty empty bandwidth 5 9 0 10 -261682
-1 -1 3300 0;
#X obj 217 628 dac~;
#X obj 225 142 lowpass;
#X obj 332 142 highpass;
#X obj 137 91 noise~;
#X obj 278 186 biquad~;
#X obj 226 589 +~;
#X obj 182 506 *~ 1;
#X obj 255 506 *~ 1;
#X floatatom 206 455 4 0 0 0 - - -;
#X floatatom 281 456 4 0 0 0 - - -;
#X floatatom 226 348 4 0 1 0 - - -;
#X obj 207 393 - 1;
#X obj 207 415 abs;
#X obj 222 173 log;
#X obj 219 220 - 3;
#X obj 219 275 / 6.9;
#X connect 1 0 8 0;
#X connect 1 0 9 0;
#X connect 2 0 3 0;
#X connect 3 0 8 0;
#X connect 3 0 9 0;
#X connect 3 1 8 1;
#X connect 3 1 9 1;
#X connect 4 0 13 0;
#X connect 5 0 1 0;
#X connect 5 0 20 0;
#X connect 6 0 2 0;
#X connect 8 0 4 0;
#X connect 9 0 11 0;
#X connect 10 0 4 0;
#X connect 11 0 14 0;
#X connect 12 0 7 0;
#X connect 12 0 7 1;
#X connect 13 0 12 0;
#X connect 14 0 12 1;
#X connect 15 0 13 1;
#X connect 16 0 14 1;
#X connect 17 0 18 0;
#X connect 17 0 16 0;
#X connect 18 0 19 0;
#X connect 19 0 15 0;
#X connect 20 0 21 0;
#X connect 21 0 22 0;
#X connect 22 0 17 0;
